# xmcd
#
# Track frame offsets:
#	150
#	17370
#	33032
#	48637
#	69190
#	85517
#
# Disc length: 1350 seconds
#
# Revision: 0
# Processed by: cddbd v1.4PL0 Copyright (c) Steve Scherf et al.
# Submitted via: EasyCDDAExtractor 4.6.9.1
#
DISCID=35054406
DTITLE=Bijou
DYEAR=1900
DGENRE=
TTITLE0=White Christmas
TTITLE1=One's Again
TTITLE2=Chtistmas and Christmas
TTITLE3=Love Love
TTITLE4=Last Christmas
TTITLE5=Chtistmas and Christmas - Inst.
EXTD=
EXTT0=
EXTT1=
EXTT2=
EXTT3=
EXTT4=
EXTT5=
PLAYORDER=
